<svg width="512" height="512" viewBox="0 0 512 512" fill="none" xmlns="http://www.w3.org/2000/svg">
<g clip-path="url(#clip0_305_7)">
<path d="M63.2321 260.8H31.2107C29.8027 260.8 29.0987 261.419 29.0987 262.635C29.0987 265.579 30.6987 268.373 33.8987 270.976C37.0987 273.579 40.5334 274.901 44.2241 274.901C46.4001 274.901 48.8321 274.475 51.4774 273.643C54.1441 272.811 56.3201 271.765 58.0481 270.549C59.5841 269.461 60.8214 268.907 61.7174 268.907C62.8907 268.907 64.0641 269.632 65.1947 271.083C66.2595 272.345 66.8615 273.933 66.9014 275.584C66.9014 278.848 64.8534 282.005 60.7787 285.056C53.5467 290.453 45.2267 293.163 35.7761 293.163C26.2401 293.163 18.2401 290.389 11.7974 284.843C8.62005 282.059 5.98701 278.71 4.03205 274.965C1.3749 269.975 -0.0100213 264.406 5.4589e-05 258.752C5.4589e-05 251.115 2.32539 244.267 6.95472 238.187C10.9441 232.917 16.0427 228.992 22.2081 226.411C26.8374 224.448 31.8507 223.488 37.2694 223.488C45.8881 223.488 53.2267 225.941 59.2641 230.848C62.3147 233.301 64.7681 236.203 66.624 239.573C68.7574 243.392 69.8241 247.104 69.8241 250.752C69.927 253.296 69.2897 255.816 67.9894 258.005C66.7734 259.861 65.1734 260.8 63.2321 260.8V260.8ZM32.9814 248.064H39.8721C42.7734 248.064 44.2241 246.72 44.2241 244.053C44.3182 241.858 43.5617 239.71 42.1121 238.059C41.4144 237.294 40.559 236.69 39.605 236.289C38.651 235.887 37.6211 235.698 36.5867 235.733C35.4156 235.693 34.2529 235.947 33.2055 236.472C32.1581 236.998 31.2595 237.778 30.5921 238.741C29.3149 240.354 28.5961 242.338 28.5441 244.395C28.5441 245.76 28.8641 246.72 29.5254 247.253C30.1867 247.787 31.3387 248.064 32.9814 248.064V248.064ZM111.765 223.403C119.659 223.403 126.357 225.408 131.861 229.397C134.763 231.531 136.811 233.984 137.963 236.715C139.115 239.467 139.691 243.243 139.691 248.064L139.563 258.219C139.563 265.259 140.053 269.824 141.056 271.915C141.547 272.917 142.037 273.557 142.485 273.813C143.389 274.223 144.356 274.475 145.344 274.56C146.795 274.795 147.52 275.733 147.52 277.419C147.406 279.911 146.485 282.3 144.896 284.224C143.071 286.651 140.761 288.671 138.112 290.155C134.888 292.107 131.193 293.147 127.424 293.163C125.291 293.257 123.163 292.865 121.204 292.014C119.245 291.164 117.506 289.879 116.117 288.256C115.157 287.083 114.283 286.485 113.451 286.485C112.533 286.485 111.339 287.061 109.845 288.192C105.365 291.481 99.9367 293.226 94.3787 293.163C88.4267 293.163 83.6054 291.883 79.9361 289.344C77.5201 287.656 75.5566 285.399 74.2187 282.773C72.8322 280.158 72.1071 277.243 72.1067 274.283C72.1067 269.568 74.0054 265.387 77.8241 261.739C83.7761 256.021 92.672 253.141 104.533 253.077C107.157 253.077 108.821 252.821 109.504 252.288C110.187 251.776 110.528 250.56 110.528 248.64C110.528 243.819 110.037 240.341 109.035 238.187C108.032 236.032 106.411 234.944 104.128 234.944C102.806 234.926 101.518 235.362 100.48 236.181C99.4134 236.992 98.0907 238.507 96.4907 240.683C92.4374 246.443 88.2347 249.344 83.8187 249.344C81.8145 249.427 79.8589 248.714 78.3787 247.36C77.6781 246.696 77.1273 245.89 76.7631 244.996C76.3989 244.102 76.2297 243.141 76.2667 242.176C76.2667 240 77.1414 237.824 78.8907 235.627C80.6401 233.451 83.008 231.531 86.016 229.909C93.932 225.652 102.777 223.417 111.765 223.403V223.403ZM107.2 262.848C106.205 262.849 105.223 263.069 104.323 263.493C103.424 263.917 102.629 264.535 101.995 265.301C100.532 266.901 99.7375 269.001 99.776 271.168C99.776 273.344 100.288 275.115 101.333 276.459C101.814 277.103 102.443 277.622 103.168 277.971C103.892 278.32 104.69 278.489 105.493 278.464C109.12 278.464 110.933 275.392 110.933 269.269C110.933 266.773 110.677 265.088 110.144 264.235C109.632 263.339 108.651 262.891 107.2 262.848V262.848ZM178.24 223.467C180.501 223.467 184.213 223.957 189.355 224.96C190.205 225.129 191.069 225.222 191.936 225.237C193.485 225.041 195 224.631 196.437 224.021C197.282 223.656 198.185 223.446 199.104 223.403C201.195 223.403 203.307 224.747 205.44 227.413C207.168 229.547 208.576 231.893 209.664 234.432C210.645 236.506 211.204 238.754 211.307 241.045C211.328 241.891 211.17 242.731 210.843 243.511C210.516 244.29 210.027 244.991 209.408 245.568C208.116 246.778 206.399 247.43 204.629 247.381C203.127 247.406 201.649 247.006 200.363 246.229C198.2 244.708 196.18 242.994 194.325 241.109C191.424 238.293 189.013 236.885 187.093 236.885C186.477 236.881 185.866 237.002 185.298 237.24C184.73 237.479 184.216 237.83 183.787 238.272C183.34 238.698 182.987 239.212 182.748 239.781C182.51 240.35 182.391 240.962 182.4 241.579C182.4 243.797 184.533 245.888 188.8 247.851C196.48 251.307 202.368 255.083 206.443 259.157C209.899 262.613 211.627 266.837 211.627 271.829C211.627 278.144 208.853 283.413 203.307 287.637C198.26 291.404 192.087 293.352 185.792 293.163C184.021 293.163 180.8 292.864 176.128 292.288C173.66 291.98 171.184 291.732 168.704 291.541C168.016 291.547 167.33 291.618 166.656 291.755C165.709 291.899 164.755 291.991 163.797 292.032C161.973 292.134 160.176 291.548 158.763 290.389C156.516 288.122 154.753 285.422 153.579 282.453C152.156 279.548 151.343 276.383 151.189 273.152C151.189 268.971 152.832 266.88 156.096 266.88C157.376 266.88 158.528 267.307 159.595 268.139C160.661 268.971 162.901 271.211 166.315 274.859C168.171 276.864 169.728 278.229 170.944 278.976C172.127 279.716 173.495 280.108 174.891 280.107C176.384 280.107 177.6 279.701 178.496 278.912C178.948 278.519 179.305 278.029 179.541 277.478C179.778 276.928 179.887 276.332 179.861 275.733C179.861 273.685 178.112 271.829 174.613 270.144C167.296 266.56 162.027 262.848 158.784 259.029C155.595 255.366 153.864 250.659 153.92 245.803C153.92 240.405 155.584 235.733 158.891 231.829C163.605 226.261 170.069 223.467 178.24 223.467V223.467ZM284.779 256.981L275.776 281.707C273.979 286.9 271.731 291.925 269.056 296.725C266.989 300.38 264.41 303.721 261.397 306.645C255.488 312.277 248.384 315.093 240.064 315.093C233.344 315.093 227.883 313.323 223.723 309.781C222.174 308.527 220.932 306.934 220.093 305.126C219.254 303.318 218.839 301.342 218.88 299.349C218.88 295.851 220.011 292.907 222.251 290.517C223.296 289.365 224.575 288.449 226.002 287.831C227.43 287.213 228.973 286.907 230.528 286.933C233.792 286.933 236.437 288.021 238.421 290.197C239.213 290.961 239.857 291.866 240.32 292.864C240.64 293.632 241.109 295.339 241.749 297.984C242.24 299.989 243.392 300.992 245.163 300.992C245.856 300.991 246.54 300.823 247.156 300.504C247.772 300.185 248.303 299.723 248.704 299.157C249.689 297.844 250.194 296.233 250.133 294.592C250.133 292.459 248.96 288.896 246.592 283.904L230.165 248.96C229.154 246.542 227.85 244.256 226.283 242.155C224.582 240.726 222.648 239.6 220.565 238.827C219.569 238.384 218.745 237.627 218.219 236.672C217.606 235.754 217.266 234.682 217.237 233.579C217.237 229.547 221.248 226.795 229.291 225.344C234.645 224.384 240.768 223.915 247.616 223.915C252.437 223.915 256.213 224.405 258.987 225.408C262.72 226.731 264.576 228.971 264.576 232.149C264.462 233.61 263.92 235.005 263.019 236.16C262.144 237.276 261.623 238.628 261.525 240.043C261.525 241.131 261.76 242.261 262.251 243.456C262.72 244.629 263.744 246.635 265.28 249.451C267.008 252.629 268.523 254.229 269.845 254.229C271.253 254.229 272.704 252.843 274.197 250.048C275.6 247.587 276.37 244.816 276.437 241.984C276.513 240.126 275.906 238.305 274.731 236.864C273.003 234.816 272.149 233.067 272.149 231.616C272.149 229.291 273.685 227.456 276.779 226.069C279.872 224.683 283.989 224 289.173 224C298.795 224 303.616 226.325 303.616 230.955C303.65 231.694 303.538 232.433 303.285 233.128C303.032 233.824 302.645 234.463 302.144 235.008C300.593 236.355 298.765 237.346 296.789 237.909C294.664 238.678 292.845 240.115 291.605 242.005C289.664 244.971 287.36 249.984 284.779 256.981V256.981ZM352.811 196.907C357.888 196.907 363.072 197.355 368.341 198.272C372.651 198.997 375.744 200 377.6 201.28C379.456 202.56 380.395 204.309 380.395 206.528C380.466 207.718 380.102 208.893 379.371 209.835C378.072 211.053 376.57 212.035 374.933 212.736C372.309 214.101 370.795 215.701 370.411 217.536C370.027 219.371 369.664 226.517 369.344 238.955C369.216 250.987 369.088 258.219 368.96 260.629C368.852 262.987 368.567 265.333 368.107 267.648C366.784 274.283 364.139 279.488 360.128 283.243C356.864 286.336 352.661 288.768 347.52 290.539C342.302 292.326 336.822 293.228 331.307 293.205C326.187 293.194 321.089 292.528 316.139 291.221C311.499 290.072 307.055 288.238 302.955 285.781C299.872 283.891 297.335 281.229 295.595 278.059C293.8 274.891 292.859 271.311 292.864 267.669C292.864 263.125 294.293 259.371 297.152 256.384C298.535 254.928 300.209 253.778 302.065 253.01C303.921 252.242 305.917 251.872 307.925 251.925C312.149 251.925 315.733 253.184 318.699 255.68C320.1 256.812 321.227 258.247 321.995 259.876C322.763 261.505 323.154 263.287 323.136 265.088C323.136 266.048 322.859 267.627 322.325 269.867C322.237 270.359 322.194 270.859 322.197 271.36C322.176 272.029 322.305 272.695 322.574 273.307C322.844 273.92 323.247 274.465 323.755 274.901C324.924 275.857 326.407 276.344 327.915 276.267C329.391 276.279 330.845 275.908 332.135 275.19C333.425 274.472 334.507 273.432 335.275 272.171C337.131 269.44 338.069 265.856 338.069 261.397L338.005 255.189L337.877 238.507C337.694 232.542 337.388 226.582 336.96 220.629C336.827 219.058 336.299 217.546 335.424 216.235C334.953 215.522 334.335 214.918 333.611 214.464C332.226 213.917 330.799 213.482 329.344 213.163C328.207 212.904 327.208 212.226 326.549 211.264C325.813 210.31 325.408 209.141 325.397 207.936C325.397 205.483 326.357 203.52 328.299 202.048C330.219 200.576 333.376 199.381 337.728 198.464C342.685 197.403 347.742 196.881 352.811 196.907V196.907ZM441.451 260.8H409.429C408.021 260.8 407.317 261.419 407.317 262.635C407.317 265.579 408.917 268.373 412.117 270.976C415.317 273.579 418.752 274.901 422.443 274.901C424.619 274.901 427.051 274.475 429.696 273.643C432.363 272.811 434.539 271.765 436.267 270.549C437.803 269.461 439.04 268.907 439.936 268.907C441.109 268.907 442.283 269.632 443.413 271.083C444.478 272.345 445.08 273.933 445.12 275.584C445.12 278.848 443.072 282.005 438.997 285.056C431.765 290.453 423.445 293.163 413.995 293.163C404.459 293.163 396.459 290.389 390.016 284.843C386.299 281.591 383.324 277.579 381.292 273.077C379.26 268.576 378.22 263.691 378.24 258.752C378.24 251.115 380.565 244.267 385.195 238.187C389.184 232.917 394.283 228.992 400.448 226.411C405.077 224.448 410.091 223.488 415.509 223.488C424.128 223.488 431.467 225.941 437.525 230.848C440.576 233.301 443.029 236.203 444.885 239.573C447.019 243.392 448.085 247.104 448.085 250.752C448.188 253.296 447.551 255.816 446.251 258.005C444.992 259.861 443.413 260.8 441.451 260.8V260.8ZM411.2 248.064H418.091C420.992 248.064 422.443 246.72 422.443 244.053C422.537 241.858 421.78 239.71 420.331 238.059C419.633 237.294 418.778 236.69 417.824 236.289C416.87 235.887 415.84 235.698 414.805 235.733C413.634 235.693 412.472 235.947 411.424 236.472C410.377 236.998 409.478 237.778 408.811 238.741C407.534 240.354 406.815 242.338 406.763 244.395C406.763 245.76 407.083 246.72 407.744 247.253C408.427 247.787 409.579 248.064 411.2 248.064ZM491.435 241.323V264.341C491.435 267.072 492.096 269.291 493.44 271.019C494.026 271.831 494.8 272.489 495.695 272.938C496.59 273.388 497.58 273.615 498.581 273.6C500.352 273.6 502.699 272.789 505.6 271.147C506.214 270.758 506.922 270.544 507.648 270.528C508.736 270.528 509.739 271.189 510.656 272.512C511.535 273.777 512.005 275.281 512 276.821C512 279.637 510.464 282.347 507.371 284.928C500.928 290.432 493.099 293.163 483.925 293.163C476.651 293.163 470.827 291.115 466.411 286.997C461.995 282.88 459.797 277.461 459.797 270.741V239.275C459.797 238.229 459.669 237.589 459.413 237.333C459.157 237.077 458.517 236.949 457.472 236.949H450.453C449.131 236.949 448.299 236.736 447.936 236.309C447.573 235.883 447.381 234.859 447.381 233.28V230.272C447.424 228.907 447.957 227.904 448.939 227.264L480.149 207.637C481.038 207.202 482.019 206.99 483.008 207.019H488.533C489.664 207.019 490.432 207.275 490.816 207.808C491.2 208.32 491.392 209.365 491.392 210.901V220.096C491.392 221.461 491.605 222.336 492.032 222.763C492.459 223.168 493.376 223.381 494.784 223.381H507.392C509.077 223.381 510.165 223.68 510.656 224.299C511.147 224.917 511.403 226.219 511.403 228.224V232.235C511.403 234.411 511.083 235.925 510.443 236.757C509.803 237.589 508.651 238.016 506.965 238.016H494.635C493.355 238.016 492.501 238.251 492.053 238.699C491.648 239.189 491.435 240.043 491.435 241.323V241.323Z" fill="#FF6600"/>
</g>
<defs>
<clipPath id="clip0_305_7">
<rect width="512" height="512" fill="white"/>
</clipPath>
</defs>
</svg>
