<svg width="512" height="512" viewBox="0 0 512 512" fill="none" xmlns="http://www.w3.org/2000/svg">
<g clip-path="url(#clip0_305_3)">
<path d="M210.069 0.170832C194.752 1.1735 178.837 6.31483 167.701 17.4508C150.72 38.6988 131.605 57.7922 108.245 70.5282C107.077 71.5542 105.576 72.1201 104.021 72.1201C102.467 72.1201 100.965 71.5542 99.7973 70.5282C97.664 64.1495 104.021 59.9255 104.021 55.6802C106.155 47.1895 108.288 36.5868 104.021 25.9628C95.5307 15.3602 76.4373 13.2268 61.568 15.3602C55.2107 15.3602 48.8533 17.4935 40.3627 19.6268C38.2293 19.6268 33.9627 21.7175 33.9627 25.9628C36.096 34.4535 31.872 45.0988 29.7387 51.4562C27.6053 55.7228 29.7387 57.8135 29.7387 64.1922C27.6053 64.1922 29.7387 66.3042 27.6267 66.3042C27.6267 76.9068 42.496 72.6615 48.8533 79.0188C48.8533 81.1522 50.9867 83.2855 50.9867 85.4188C53.0987 87.5308 53.0773 91.7762 53.0773 93.9095C42.4747 110.891 12.8 121.472 4.28801 129.963C-8.44799 146.944 14.9333 153.323 14.9333 161.814V166.038C14.9333 176.64 19.1573 183.04 19.1573 191.531C27.648 212.757 40.3627 231.851 53.0987 253.078C57.3653 259.456 61.632 267.925 67.9893 278.528C70.1227 282.795 72.192 287.019 76.4373 289.152C118.891 331.606 176.192 357.056 214.4 399.488L239.893 431.339C252.629 448.32 265.344 465.301 275.947 484.395C282.325 492.885 286.571 503.51 295.061 512C301.44 509.867 297.195 501.398 297.195 497.152C299.307 497.152 295.061 497.131 297.195 495.019C295.061 486.507 290.795 478.038 288.661 469.547C286.549 467.414 286.571 465.323 286.571 465.323C284.437 454.72 280.192 444.096 275.947 433.494C267.456 416.512 261.12 397.398 250.496 380.438C239.893 363.456 225.045 346.453 205.931 333.717C192.796 326.082 181.257 315.985 171.947 303.979C159.211 287.019 148.608 267.926 138.005 248.811C133.739 240.32 131.648 229.739 125.269 221.248C114.667 206.4 91.3493 197.888 89.216 180.928C91.3493 159.701 99.8187 142.72 112.555 125.739C135.893 93.9095 176.213 76.8855 218.667 79.0188C263.253 76.8855 305.707 96.0215 354.517 98.1335C379.968 100.267 407.552 96.0002 430.891 89.6428L450.005 83.2855C470.519 76.3824 489.846 66.359 507.307 53.5682C511.552 51.4348 511.531 47.1895 511.531 45.0775C509.397 42.9442 507.307 45.0775 505.195 45.0775C490.325 47.2108 479.701 53.5682 464.875 53.5682H441.515C405.44 49.3228 371.456 40.8535 339.627 30.2295C301.419 19.6268 265.323 6.8695 224.981 0.512165C220.023 -0.0367004 215.026 -0.150913 210.048 0.170832H210.069ZM215.701 100.117C209.237 101.312 204.821 106.091 201.643 110.869C184.626 149.233 173.88 190.08 169.813 231.851C169.813 236.118 169.835 242.475 174.08 244.587C174.08 246.72 178.304 246.72 178.304 244.587C195.285 204.267 203.797 163.947 227.157 125.76C229.269 119.36 237.739 113.003 231.36 104.512C229.248 102.379 227.115 100.245 222.869 100.245C220.51 99.7428 218.077 99.6993 215.701 100.117V100.117ZM278.037 110.869C273.792 110.869 273.835 113.003 271.701 115.136C248.363 153.323 231.381 197.867 218.645 240.32C212.267 259.414 208.021 280.64 212.245 299.755C212.245 301.888 214.4 301.888 216.512 301.888C218.645 301.888 220.779 299.755 220.779 297.643C233.493 246.72 263.189 200 286.549 153.301C290.795 140.565 299.285 129.984 297.152 115.115C292.907 110.891 284.416 110.848 278.037 110.848V110.869ZM418.155 110.869C409.664 113.003 403.285 121.494 401.152 127.851C379.947 180.907 350.229 229.718 326.869 280.662C309.909 327.339 288.683 371.947 286.549 422.87C286.549 427.136 286.549 431.36 290.816 435.606C292.949 435.606 295.04 437.739 295.04 435.606C301.419 424.982 303.531 412.224 307.776 399.488C322.624 359.168 337.472 318.848 360.832 280.662C388.416 236.075 422.4 193.622 439.381 144.811C441.515 136.32 445.739 129.963 441.515 121.472C437.248 115.115 428.779 112.982 418.155 110.869V110.869ZM348.096 112.981C339.605 115.115 335.36 121.494 331.115 127.851C320.491 151.211 307.776 170.304 297.152 193.643C271.68 240.341 258.965 289.152 252.587 342.208C252.587 348.587 252.587 357.056 254.72 363.435C256.832 363.435 261.099 363.435 261.099 361.302C265.344 346.454 269.568 331.605 273.813 318.869C292.928 253.077 337.515 200.022 365.099 138.475C367.232 134.208 371.456 123.605 365.099 119.36C360.853 117.227 354.475 115.094 348.096 112.96V112.981Z" fill="#F1C933"/>
</g>
<defs>
<clipPath id="clip0_305_3">
<rect width="512" height="512" fill="white"/>
</clipPath>
</defs>
</svg>
