<svg width="512" height="512" viewBox="0 0 512 512" fill="none" xmlns="http://www.w3.org/2000/svg">
<g clip-path="url(#clip0_305_5)">
<path d="M376.256 221.717H425.707L367.125 298.347H317.632L376.256 221.717ZM372.523 214.229L310.272 295.723C309.551 296.639 309.107 297.743 308.993 298.904C308.88 300.064 309.102 301.233 309.632 302.272C310.152 303.325 310.954 304.213 311.948 304.838C312.942 305.463 314.09 305.801 315.264 305.813H370.837L433.621 223.723C434.283 222.835 434.688 221.781 434.789 220.678C434.891 219.576 434.686 218.466 434.197 217.472C433.7 216.488 432.936 215.662 431.994 215.089C431.051 214.516 429.967 214.218 428.864 214.229H372.523ZM194.709 174.4C194.872 174.127 195.103 173.9 195.38 173.743C195.657 173.586 195.97 173.504 196.288 173.504H228.715L233.387 146.731C233.467 146.328 233.686 145.966 234.006 145.709C234.325 145.452 234.726 145.315 235.136 145.323L265.493 145.301C266.048 145.301 266.496 145.451 266.816 145.813C266.984 146.016 267.109 146.252 267.183 146.505C267.256 146.758 267.276 147.024 267.243 147.285L264.213 164.608L406.933 164.715C407.723 164.715 408.256 165.163 408.533 165.632C408.704 165.952 408.917 166.635 408.469 167.253L395.584 184.107L501.355 184.064C501.603 184.067 501.847 184.135 502.06 184.263C502.274 184.39 502.45 184.572 502.571 184.789C502.691 184.973 502.755 185.188 502.755 185.408C502.755 185.628 502.691 185.843 502.571 186.027L414.656 301.12C413.653 302.4 413.696 305.579 414.4 306.923C415.125 308.309 417.621 310.251 419.2 310.251L481.024 310.315C481.278 310.308 481.531 310.358 481.764 310.461C481.996 310.565 482.203 310.719 482.368 310.912C482.535 311.103 482.657 311.328 482.727 311.571C482.797 311.814 482.813 312.07 482.773 312.32L478.08 339.2C478.004 339.61 477.783 339.98 477.459 340.242C477.134 340.504 476.726 340.641 476.309 340.629H241.045L237.205 340.608C237.479 341.963 237.607 343.343 237.589 344.725C237.589 349.059 236.304 353.295 233.897 356.898C231.49 360.501 228.068 363.309 224.064 364.967C220.061 366.625 215.656 367.059 211.406 366.214C207.156 365.368 203.252 363.282 200.188 360.218C197.124 357.154 195.037 353.25 194.192 349C193.346 344.75 193.78 340.344 195.438 336.341C197.097 332.338 199.905 328.916 203.508 326.508C207.111 324.101 211.347 322.816 215.68 322.816C219.602 322.822 223.451 323.878 226.827 325.874C230.203 327.869 232.984 330.732 234.88 334.165L330.773 208.469C332.309 205.227 331.541 204.053 330.709 202.155C330.112 200.704 327.787 199.211 325.269 199.253H258.133L240.981 297.173C240.885 297.551 240.664 297.885 240.354 298.121C240.045 298.357 239.664 298.482 239.275 298.475H208.875C208.621 298.477 208.37 298.425 208.138 298.322C207.906 298.219 207.699 298.067 207.531 297.877C207.365 297.687 207.245 297.461 207.178 297.217C207.112 296.973 207.101 296.718 207.147 296.469L225.771 190.187L150.016 338.731C149.676 339.324 149.185 339.816 148.593 340.157C148.001 340.498 147.329 340.676 146.645 340.672L120.832 340.821C119.915 340.821 119.147 340.16 119.083 339.371L111.957 231.467L55.9786 338.752C55.639 339.34 55.1509 339.829 54.5632 340.17C53.9755 340.511 53.3086 340.691 52.6293 340.693H26.4746C26.0464 340.701 25.631 340.547 25.3109 340.263C24.9908 339.978 24.7894 339.584 24.7466 339.157L7.67998 175.381C7.65725 175.137 7.68325 174.89 7.75649 174.656C7.82973 174.422 7.94875 174.204 8.10665 174.016C8.28638 173.848 8.49797 173.719 8.72884 173.634C8.95972 173.55 9.20518 173.513 9.45065 173.525H44.6293C45.5893 173.525 46.4 174.293 46.4 175.317L51.6693 282.197L103.403 174.443C103.556 174.159 103.784 173.924 104.063 173.762C104.341 173.6 104.659 173.518 104.981 173.525L137.045 173.376C137.941 173.376 138.731 174.059 138.773 174.827L144 282.517L194.709 174.4ZM233.643 137.813C231.884 137.812 230.181 138.433 228.834 139.564C227.488 140.696 226.584 142.267 226.283 144L222.421 166.016H195.136C192.363 166.016 189.867 167.509 188.437 170.112L150.037 252.032L146.24 172.843C146.075 170.977 145.216 169.241 143.834 167.978C142.452 166.714 140.646 166.014 138.773 166.016H103.851C102.467 166.023 101.111 166.41 99.9335 167.137C98.7556 167.863 97.8006 168.9 97.1733 170.133L57.6853 252.373L53.7813 173.483C53.7813 171.502 52.9946 169.603 51.5944 168.203C50.1941 166.803 48.2949 166.016 46.3146 166.016H7.48798C6.45531 166.007 5.43191 166.211 4.48138 166.615C3.53085 167.019 2.67351 167.614 1.96265 168.363C1.26914 169.152 0.7402 170.072 0.40684 171.068C0.0734804 172.065 -0.0575908 173.118 0.0213118 174.165L17.4293 341.461C17.6344 343.291 18.5078 344.979 19.882 346.204C21.2561 347.428 23.0341 348.102 24.8746 348.096H53.7386C55.474 348.104 57.1784 347.637 58.6674 346.746C60.1565 345.855 61.3735 344.573 62.1866 343.04L106.283 258.56L111.723 341.461C111.927 343.287 112.798 344.973 114.167 346.197C115.537 347.421 117.31 348.097 119.147 348.096H147.797C149.536 348.095 151.242 347.62 152.73 346.721C154.219 345.823 155.434 344.535 156.245 342.997L209.835 237.931L199.467 297.195C199.279 298.272 199.327 299.377 199.607 300.434C199.886 301.491 200.392 302.474 201.088 303.317C201.789 304.152 202.663 304.824 203.651 305.284C204.639 305.745 205.715 305.984 206.805 305.984H240.768C242.49 305.975 244.157 305.375 245.489 304.284C246.821 303.192 247.738 301.676 248.085 299.989L264.427 206.72H322.773L234.603 322.133C229.311 317.718 222.636 315.301 215.744 315.307C199.531 315.307 186.283 328.533 186.283 344.747C186.283 360.981 199.509 374.187 215.723 374.187C222.945 374.157 229.908 371.491 235.305 366.692C240.702 361.892 244.162 355.287 245.035 348.117H477.824C479.586 348.125 481.293 347.504 482.638 346.367C483.983 345.229 484.878 343.648 485.163 341.909L490.496 311.616C490.678 310.539 490.623 309.436 490.336 308.382C490.048 307.329 489.535 306.35 488.832 305.515C488.131 304.682 487.256 304.013 486.268 303.556C485.28 303.098 484.203 302.864 483.115 302.869L422.741 302.827L510.763 187.627C511.49 186.576 511.913 185.344 511.985 184.068C512.056 182.792 511.774 181.52 511.168 180.395C510.574 179.24 509.671 178.271 508.56 177.597C507.449 176.923 506.174 176.57 504.875 176.576H410.709L416.683 168.768C417.432 167.642 417.864 166.333 417.931 164.982C417.999 163.63 417.699 162.286 417.066 161.09C416.432 159.895 415.487 158.893 414.33 158.19C413.174 157.488 411.849 157.11 410.496 157.099H273.109L274.987 146.56C275.159 145.469 275.094 144.353 274.796 143.289C274.498 142.225 273.973 141.238 273.259 140.395C272.567 139.571 271.701 138.912 270.723 138.466C269.745 138.019 268.68 137.796 267.605 137.813H233.643V137.813Z" fill="url(#paint0_linear_305_5)"/>
</g>
<defs>
<linearGradient id="paint0_linear_305_5" x1="255.997" y1="137.812" x2="255.997" y2="374.187" gradientUnits="userSpaceOnUse">
<stop stop-color="#CD2B86"/>
<stop offset="1" stop-color="#161998"/>
</linearGradient>
<clipPath id="clip0_305_5">
<rect width="512" height="512" fill="white"/>
</clipPath>
</defs>
</svg>
