<svg width="483" height="228" viewBox="0 0 483 228" fill="none" xmlns="http://www.w3.org/2000/svg">
<path d="M13.9455 78.496C11.2248 77.7103 8.89403 76.4443 6.95327 74.6979C5.07467 72.9451 3.47139 70.8181 2.14344 68.3169C2.5908 66.5738 3.4402 65.0718 4.69164 63.8108C5.93663 62.4876 7.3564 61.3348 8.95095 60.3524C10.6077 59.3635 12.3738 58.5203 14.2493 57.8228C16.1248 57.1254 17.9445 56.4965 19.7086 55.9363C20.0945 56.0219 20.281 56.0026 20.2681 55.8782C20.2552 55.7539 20.4171 55.7999 20.7537 56.0163C22.9207 55.1001 25.4328 54.1794 28.29 53.2544C31.1408 52.2671 34.2232 51.6957 37.5374 51.54C37.9467 51.2462 38.4622 51.067 39.0839 51.0024C39.6991 50.8757 40.3486 50.7768 41.0324 50.7058C41.7162 50.6348 42.369 50.567 42.9906 50.5025C43.6058 50.3758 44.1213 50.1965 44.5371 49.9649C44.9553 50.3613 45.5438 50.5829 46.3027 50.6298C47.0552 50.6145 47.8645 50.8446 48.7308 51.3202C48.9859 51.3565 48.9762 51.2633 48.7017 51.0404C48.4208 50.7554 48.4293 50.5346 48.7272 50.378C49.5354 50.2941 50.2696 50.4064 50.93 50.7148C51.5904 51.0232 52.1951 51.4003 52.7441 51.846C53.3487 52.223 53.888 52.5755 54.3619 52.9033C54.898 53.2246 55.4458 53.3562 56.0052 53.2981C56.6357 53.9239 57.3563 54.5088 58.1668 55.053C59.0331 55.5286 59.8404 56.0417 60.5888 56.5923C61.3993 57.1365 62.0609 57.759 62.5735 58.4598C63.1483 59.1542 63.4841 59.9676 63.581 60.9001C63.5575 61.2795 63.7045 61.4842 64.0217 61.5141C64.339 61.544 64.576 61.7079 64.7326 62.0058C65.0336 64.2994 64.8672 66.3275 64.2333 68.0899C63.6617 69.8458 62.8595 71.5 61.8268 73.0525C60.7877 74.5428 59.6489 75.9806 58.4103 77.366C57.234 78.7448 56.1605 80.2073 55.19 81.7533C56.0328 82.6083 56.9625 83.3915 57.9789 84.1028C59.051 84.7455 60.1231 85.3882 61.1952 86.0309C62.2673 86.6736 63.2838 87.3849 64.2445 88.1649C65.2609 88.8762 66.1348 89.728 66.8662 90.7202C67.0914 91.0739 67.5213 91.2806 68.1559 91.3403C68.4198 92.067 68.7492 92.8182 69.1439 93.5941C69.5944 94.3013 70.0138 95.0118 70.4021 95.7255C70.7839 96.3771 71.035 96.9794 71.1552 97.5324C71.2755 98.0854 71.1685 98.5678 70.8342 98.9795C71.2952 99.183 71.5859 99.5613 71.7061 100.114C71.8199 100.605 71.8619 101.009 71.832 101.327C70.6387 103.147 69.8288 104.425 69.4025 105.16C68.9762 105.896 68.6549 106.432 68.4385 106.769C68.2221 107.105 68.0025 107.411 67.7796 107.685C67.5568 107.96 67.0489 108.515 66.2561 109.352C63.1679 111.683 59.9049 113.844 56.4671 115.835C53.0851 117.757 49.496 119.198 45.6998 120.158C45.4342 120.625 45.0034 121.015 44.4076 121.329C43.8804 121.698 43.2535 122.014 42.5268 122.278C41.8002 122.542 41.0082 122.781 40.1508 122.996C39.3556 123.204 38.6225 123.406 37.9516 123.601C37.6278 123.509 37.4187 123.311 37.3243 123.007C37.2985 122.758 37.1237 122.588 36.7999 122.496C36.8152 123.248 36.5121 123.657 35.8904 123.721C35.3374 123.841 34.6096 123.791 33.707 123.571C32.8044 123.351 31.8578 123.009 30.8672 122.546C29.8766 122.084 29.0136 121.639 28.2781 121.213C28.0254 121.805 27.6826 122.437 27.2499 123.11C26.8793 123.777 26.4582 124.261 25.9867 124.561C25.1035 124.527 24.441 124.502 23.9994 124.485C23.62 124.461 23.2631 124.656 22.9289 125.067C22.4057 124.87 22.0037 124.629 21.7227 124.344C21.4482 124.121 21.1705 123.867 20.8896 123.582C20.6151 123.36 20.3128 123.171 19.9826 123.017C19.6459 122.8 19.1571 122.631 18.5161 122.509C18.6081 122.186 18.4664 121.729 18.0911 121.14C17.7092 120.488 17.2321 120.129 16.6597 120.063C16.9189 119.533 16.73 118.925 16.093 118.237C15.4496 117.487 14.9209 116.631 14.5067 115.668C14.5237 115.227 14.5096 114.788 14.4644 114.353C14.4749 113.849 14.4919 113.408 14.5153 113.028C14.5945 112.58 14.7112 112.191 14.8654 111.861C15.0196 111.531 15.3078 111.281 15.7301 111.111C15.584 110.309 15.2546 109.558 14.742 108.857C15.2563 108.364 15.5744 107.797 15.6964 107.156C15.8119 106.453 15.8963 105.753 15.9496 105.056C16.0651 104.353 16.2149 103.678 16.399 103.03C16.5766 102.32 16.9226 101.719 17.4369 101.226C17.2932 101.052 17.1527 100.91 17.0155 100.798C16.8782 100.687 16.7935 100.476 16.7612 100.165C17.5323 98.5139 18.0495 97.1406 18.3127 96.045C18.5695 94.8873 18.7395 93.8015 18.8227 92.7874C18.9616 91.7048 19.0941 90.56 19.2201 89.353C19.3461 88.1461 19.6885 86.6024 20.2473 84.7222C20.0689 83.6096 20.09 82.6021 20.3104 81.6995C20.5309 80.7969 20.7545 79.9254 20.9814 79.0849C21.264 78.1759 21.4502 77.2454 21.5399 76.2936C21.6295 75.3417 21.4855 74.257 21.1077 73.0396C20.0638 73.2736 19.3254 73.7273 18.8927 74.4006C18.5221 75.0675 18.3295 75.9358 18.3149 77.0055C17.807 77.5609 17.118 77.8838 16.2476 77.9742C15.3709 78.0024 14.6035 78.1764 13.9455 78.496ZM56.8437 92.2323C54.3459 91.1721 52.0894 90.621 50.0743 90.5789C48.1213 90.5304 46.2596 90.7551 44.489 91.2532C42.7742 91.6826 41.1345 92.2299 39.5698 92.8951C38.0051 93.5602 36.4276 94.1011 34.8371 94.5176C34.2484 96.7151 33.6513 99.1335 33.0456 101.773C32.44 104.412 31.859 106.986 31.3026 109.494C33.5083 108.951 35.5113 108.271 37.3117 107.456C39.1122 106.641 40.844 105.77 42.5071 104.843C44.1638 103.854 45.7927 102.9 47.3937 101.979C48.9883 100.997 50.6514 100.07 52.3832 99.199C52.4923 98.4337 52.835 97.8011 53.4115 97.3014C53.9879 96.8017 54.5676 96.3331 55.1506 95.8955C55.727 95.3958 56.207 94.8747 56.5905 94.3322C56.974 93.7897 57.0585 93.0897 56.8437 92.2323ZM47.2854 63.7233C43.4182 63.9992 39.6616 64.7349 36.0156 65.9304C32.3696 67.1259 29.3529 68.6331 26.9655 70.4519C28.3185 71.3796 29.6898 72.1798 31.0792 72.8523C32.5307 73.5185 33.6695 74.4999 34.4953 75.7965C37.3566 74.3055 39.8126 72.5424 41.8634 70.5072C43.9077 68.4098 45.715 66.1485 47.2854 63.7233ZM95.5275 108.951C96.032 110.784 96.0594 112.258 95.6097 113.372C95.2221 114.481 94.5568 115.335 93.6138 115.936C92.7394 116.592 91.6838 117.016 90.4469 117.207C89.2101 117.399 88.0225 117.459 86.8841 117.389C86.1721 116.583 85.4996 115.553 84.8667 114.3C84.2338 113.046 83.6288 111.758 83.0516 110.435C82.468 109.051 81.9186 107.694 81.4036 106.365C80.9508 105.029 80.5451 103.846 80.1867 102.815C80.4201 102.037 80.5194 101.178 80.4848 100.239C80.5058 99.2319 80.4647 98.2308 80.3614 97.2362C80.3203 96.2351 80.248 95.2372 80.1448 94.2425C80.0972 93.1792 80.0871 92.1749 80.1146 91.2295C80.2787 88.5734 80.6421 86.0222 81.2049 83.576C81.8299 81.1233 82.2588 78.5967 82.4914 75.9963C82.5576 75.4239 82.4406 74.9019 82.1403 74.4304C81.9021 73.9525 81.8226 73.4895 81.9018 73.0414C81.9381 72.7863 82.1085 72.6115 82.4129 72.517C82.7108 72.3604 82.8747 72.1235 82.9046 71.8062C83.0201 71.103 82.993 70.5403 82.8235 70.118C82.7162 69.6893 82.7856 69.148 83.0319 68.4941C83.2911 67.9645 83.5898 67.2108 83.9282 66.2332C84.3222 65.1869 84.4022 64.1418 84.1681 63.0979C84.6889 62.6668 85.1721 62.1767 85.6178 61.6278C86.0634 61.0788 86.5156 60.592 86.9742 60.1674C87.4885 59.6741 88.0403 59.2398 88.6297 58.8644C89.2812 58.4825 90.0732 58.2432 91.0057 58.1464C91.5676 58.7164 91.9495 59.3679 92.1512 60.101C92.4152 60.8276 92.6481 61.5575 92.8499 62.2906C93.1139 63.0172 93.4368 63.7063 93.8186 64.3578C94.194 64.9472 94.774 65.3896 95.5588 65.6852C95.6104 66.1825 95.675 66.8041 95.7524 67.5501C95.8299 68.2961 95.9384 69.0389 96.0781 69.7784C96.2113 70.4558 96.4034 71.0956 96.6544 71.6979C96.9612 72.2316 97.3729 72.5658 97.8896 72.7007C97.0805 75.8008 96.3303 78.8635 95.6391 81.8885C95.01 84.9072 94.5396 87.9407 94.2278 90.9892C93.9096 93.9756 93.8121 96.9704 93.9355 99.9737C94.121 102.971 94.6517 105.963 95.5275 108.951ZM124.376 95.3988C123.829 95.5813 123.461 95.9651 123.27 96.5505C123.073 97.0736 122.879 97.6278 122.689 98.2131C122.56 98.792 122.398 99.343 122.201 99.8662C122.059 100.321 121.771 100.571 121.336 100.616C121.325 101.12 121.184 101.574 120.912 101.979C120.702 102.378 120.495 102.808 120.292 103.269C120.082 103.668 119.941 104.122 119.868 104.633C119.789 105.081 119.906 105.603 120.219 106.198C119.76 106.623 119.504 107.184 119.451 107.881C119.398 108.577 119.31 109.246 119.188 109.887C119.129 110.522 118.935 111.076 118.607 111.55C118.279 112.024 117.615 112.281 116.614 112.322C116.453 112.59 116.438 112.749 116.569 112.798C116.699 112.848 116.815 113.055 116.916 113.422C116.22 113.369 115.694 113.455 115.341 113.68C115.056 113.961 114.668 114.158 114.177 114.272C112.957 114.022 111.895 113.472 110.99 112.624C110.147 111.769 109.356 110.814 108.619 109.759C107.936 108.636 107.285 107.51 106.665 106.381C106.108 105.245 105.566 104.264 105.04 103.439C105.156 102.736 105.119 102.08 104.93 101.471C104.735 100.8 104.459 100.263 104.103 99.8604C106.478 93.0788 109.087 85.8331 111.931 78.1231C114.775 70.4131 117.442 62.8158 119.932 55.331C121.42 55.742 122.887 56.2495 124.332 56.8535C125.833 57.3888 127.191 58.0646 128.407 58.8809C129.685 59.6907 130.792 60.6753 131.73 61.8347C132.66 62.932 133.328 64.2137 133.731 65.6798C133.646 66.0657 133.506 66.2373 133.313 66.1945C133.176 66.083 133.055 66.127 132.95 66.3265C133.231 66.6115 133.378 66.8161 133.391 66.9405C133.466 67.0583 133.479 67.1827 133.43 67.3135C133.442 67.4378 133.462 67.6243 133.488 67.8729C133.507 68.0594 133.629 68.3295 133.855 68.6831C133.599 68.6468 133.416 68.6972 133.305 68.8345C133.255 68.9653 133.069 68.9846 132.745 68.8926C133.065 69.5506 133.185 70.1036 133.106 70.5517C133.089 70.9933 133.007 71.4103 132.859 71.8027C132.705 72.1328 132.588 72.522 132.509 72.9701C132.423 73.356 132.506 73.8501 132.757 74.4523C132.571 74.4717 132.422 74.55 132.31 74.6873C132.254 74.7559 132.202 74.8556 132.153 74.9864C132.097 75.055 132.013 75.1579 131.902 75.2952C131.846 75.3638 131.722 75.3767 131.529 75.3339C131.858 76.6822 132.062 78.0434 132.142 79.4175C132.221 80.7916 132.305 82.1968 132.391 83.633C132.533 85.0007 132.716 86.4583 132.939 88.006C133.156 89.4915 133.535 91.0231 134.076 92.6007C136.179 91.0628 137.776 89.2003 138.868 87.0133C140.023 84.8198 140.872 82.4067 141.416 79.774C142.021 77.1348 142.39 74.3317 142.522 71.3647C142.653 68.3978 142.81 65.3654 142.991 62.2676C143.492 61.65 143.856 60.921 144.083 60.0806C144.31 59.2402 144.503 58.3719 144.661 57.4757C144.813 56.5174 144.968 55.5902 145.126 54.6941C145.278 53.7358 145.502 52.8642 145.797 52.0795C146.743 52.107 147.552 52.3371 148.225 52.7699C148.954 53.1341 149.628 53.5668 150.245 54.0682C150.856 54.5074 151.498 54.9434 152.172 55.3762C152.839 55.7468 153.645 55.9459 154.59 55.9734C155.446 56.9527 156.236 57.9074 156.961 58.8375C157.686 59.7676 158.2 60.7825 158.503 61.8821C158.243 62.4117 158.053 62.997 157.931 63.638C157.871 64.2726 157.78 64.9104 157.658 65.5514C157.536 66.1925 157.349 66.8088 157.096 67.4006C156.837 67.9302 156.447 68.4106 155.926 68.8417C155.908 70.4773 155.814 71.9951 155.645 73.3951C155.532 74.7264 155.388 76.0609 155.213 77.3987C155.1 78.73 155.024 80.1202 154.986 81.5694C154.942 82.9564 155.038 84.4859 155.274 86.1579C154.925 87.6394 154.555 89.2173 154.163 90.8917C153.772 92.5661 153.488 94.0722 153.313 95.41C152.402 96.3214 151.725 97.3657 151.282 98.5428C150.839 99.7198 150.364 100.9 149.859 102.084C149.636 102.358 149.487 102.436 149.412 102.319C149.337 102.201 149.11 102.13 148.73 102.107C148.818 102.349 148.837 102.535 148.788 102.666C148.739 102.797 148.659 102.931 148.547 103.068C148.492 103.137 148.442 103.268 148.399 103.461C148.419 103.647 148.507 103.889 148.663 104.187C147.832 104.651 147.11 105.26 146.497 106.014C145.884 106.769 145.203 107.468 144.453 108.112C143.765 108.749 142.871 109.219 141.771 109.521C140.734 109.818 139.313 109.745 137.507 109.304C134.765 107.704 132.273 105.795 130.032 103.577C127.853 101.353 125.968 98.6267 124.376 95.3988ZM225.29 85.1078C224.076 87.9359 222.334 90.2218 220.064 91.9656C217.788 93.6471 215.241 95.137 212.422 96.435C209.598 97.6709 206.607 98.8297 203.452 99.9114C200.359 100.987 197.382 102.27 194.521 103.761C193.651 103.851 192.877 103.963 192.199 104.096C191.584 104.223 190.972 104.381 190.363 104.57C189.81 104.69 189.261 104.841 188.714 105.024C188.161 105.144 187.546 105.271 186.868 105.404C186.613 105.367 186.464 105.446 186.422 105.639C186.372 105.769 186.292 105.903 186.181 106.041C185.143 106.337 184.189 106.53 183.319 106.621C182.511 106.705 181.827 106.776 181.267 106.834C180.521 106.911 179.754 107.085 178.965 107.355C178.245 107.682 177.571 107.846 176.943 107.848C172.255 108.084 168.416 106.817 165.426 104.049C162.493 101.212 160.586 97.0739 159.707 91.6356C159.737 91.3183 159.656 91.1382 159.463 91.0954C159.332 91.0462 159.198 90.9658 159.061 90.8544C158.996 90.2328 159.003 89.6979 159.083 89.2498C159.224 88.7953 159.197 88.2326 159.001 87.5617C160.263 83.9747 161.767 80.6138 163.515 77.479C165.257 74.282 167.441 71.4161 170.069 68.8811C170.465 68.4629 170.799 68.0512 171.071 67.6459C171.344 67.2407 171.585 66.8386 171.794 66.4398C172.067 66.0345 172.376 65.6882 172.723 65.4008C173.064 65.0512 173.508 64.7852 174.054 64.6028C175.205 62.9753 176.617 61.4462 178.291 60.0157C179.964 58.5852 181.738 57.2071 183.611 55.8816C185.478 54.4938 187.316 53.1404 189.127 51.8213C190.994 50.4336 192.661 48.9409 194.129 47.3432C194.845 47.5831 195.352 47.6247 195.65 47.468C195.948 47.3114 196.29 47.2759 196.676 47.3615C197.208 48.2488 197.866 48.8402 198.651 49.1358C199.498 49.4248 200.317 49.7482 201.108 50.1059C201.955 50.395 202.749 50.7838 203.491 51.2722C204.233 51.7607 204.839 52.4518 205.309 53.3456C204.936 53.3843 204.765 53.5591 204.798 53.8699C204.886 54.1121 205.008 54.3822 205.165 54.6801C205.315 54.9159 205.375 55.1924 205.345 55.5097C205.371 55.7583 205.166 55.9053 204.731 55.9504C204.825 56.2548 205.031 56.4219 205.349 56.4518C205.722 56.4131 205.924 56.5491 205.956 56.86C205.989 57.1708 205.921 57.4292 205.754 57.635C205.649 57.8344 205.681 58.1453 205.851 58.5675C204.692 59.5048 203.374 60.4271 201.897 61.3345C200.482 62.2354 198.981 63.2082 197.393 64.2528C195.861 65.2288 194.245 66.3077 192.545 67.4896C190.901 68.6028 189.305 69.8683 187.755 71.2859C186.206 72.7035 184.642 74.2797 183.062 76.0146C181.477 77.6874 179.963 79.4469 178.521 81.2932C177.079 83.1396 175.737 85.0384 174.494 86.9896C173.245 88.8788 172.213 90.7453 171.4 92.5892C171.556 92.8871 171.706 93.1229 171.85 93.2965C172.049 93.4014 172.227 93.6029 172.384 93.9008C174.386 93.8185 176.22 93.6281 177.886 93.3295C179.607 92.9622 181.357 92.8747 183.137 93.0669C183.31 92.9232 183.415 92.7238 183.452 92.4687C183.488 92.2136 183.624 92.011 183.86 91.8608C187.364 91.1198 190.601 90.2182 193.57 89.1559C196.532 88.0314 199.553 86.8694 202.633 85.6698C202.116 85.535 201.634 85.428 201.186 85.3488C200.794 85.2011 200.405 85.0844 200.019 84.9988C199.676 84.7202 199.65 84.4716 199.941 84.2528C200.288 83.9654 200.573 83.6845 200.796 83.41C199.874 83.003 199.095 82.4556 198.458 81.7677C197.883 81.0734 197.469 80.111 197.215 78.8806C197.556 78.5311 197.704 78.1387 197.659 77.7035C197.614 77.2684 197.392 76.9458 196.993 76.7359C196.738 76.6996 196.582 76.7157 196.526 76.7843C196.471 76.8529 196.418 76.9526 196.369 77.0834C196.382 77.2078 196.364 77.3353 196.315 77.4661C196.259 77.5347 196.1 77.5198 195.839 77.4213C195.843 76.8553 195.919 76.3762 196.066 75.9838C196.276 75.585 196.418 75.1305 196.49 74.6202L202.479 69.6626C203.214 70.089 204.112 70.5613 205.171 71.0797C206.224 71.5359 207.311 72.0199 208.432 72.5318C209.609 72.9751 210.79 73.4495 211.973 73.9549C213.212 74.3918 214.358 74.8383 215.411 75.2945C216.32 75.5771 217.149 75.9937 217.897 76.5444C218.646 77.095 219.366 77.68 220.059 78.2993C220.745 78.8564 221.431 79.4135 222.117 79.9706C222.866 80.5212 223.698 80.9689 224.613 81.3137C224.573 82.1348 224.672 82.7843 224.91 83.2622C225.148 83.7402 225.275 84.3554 225.29 85.1078ZM269.791 44.3873C269.898 44.816 269.934 45.1579 269.897 45.413C269.917 45.5995 269.905 45.7893 269.862 45.9822C269.882 46.1687 269.904 46.3863 269.93 46.635C269.949 46.8215 270.044 47.1258 270.213 47.5481C269.127 49.7973 267.756 51.4163 266.099 52.4052C264.498 53.3255 262.722 54.0755 260.772 54.655C258.815 55.1725 256.799 55.7274 254.724 56.3199C252.711 56.9059 250.744 57.9271 248.821 59.3835C247.981 59.1565 247.235 59.234 246.583 59.6159C245.994 59.9912 245.071 60.1813 243.815 60.1861C243.481 60.5978 243.044 60.926 242.503 61.1706C241.957 61.353 241.413 61.5665 240.873 61.8111C241.18 62.3448 241.335 62.9257 241.337 63.5538C241.395 64.1133 241.537 64.5699 241.762 64.9235C243.957 64.884 246.347 64.6044 248.933 64.0846C251.58 63.5584 254.175 63.1318 256.717 62.805C256.811 63.1093 256.803 63.3301 256.692 63.4674C256.574 63.5425 256.559 63.7011 256.647 63.9433C257.114 64.209 257.591 64.5678 258.078 65.02C258.558 65.4099 259.039 65.7999 259.519 66.1899C259.999 66.5799 260.473 66.9077 260.941 67.1733C261.464 67.3703 262.033 67.4055 262.648 67.2787C262.949 67.7502 263.162 68.2936 263.289 68.9088C263.471 69.4554 263.47 70.0524 263.286 70.6999C262.363 71.487 261.442 72.3052 260.525 73.1545C259.601 73.9416 258.609 74.673 257.548 75.3487C256.55 76.0179 255.448 76.6036 254.243 77.1057C253.095 77.5392 251.771 77.8023 250.272 77.8951C249.962 77.9274 249.713 77.9532 249.526 77.9726C249.402 77.9855 249.206 77.9116 248.938 77.7509C248.473 78.1134 247.768 78.2809 246.822 78.2534C245.939 78.2194 245.265 78.3837 244.8 78.7462C244.084 78.5063 243.232 78.4692 242.243 78.6346C241.311 78.7314 240.459 78.6943 239.687 78.5231C238.828 79.9318 238.072 81.4242 237.418 83.0001C236.765 84.576 236.215 86.2354 235.768 87.9785C237.914 88.0698 239.667 88.0134 241.028 87.8092C242.452 87.5985 243.779 87.3665 245.009 87.1131C246.233 86.7974 247.491 86.5097 248.784 86.2498C250.07 85.9277 251.711 85.6945 253.706 85.5501C254.879 84.7371 256.295 84.1503 257.954 83.7895C259.668 83.3601 261.215 82.8224 262.593 82.1766C263.11 82.3115 263.58 82.6082 264.005 83.0668C264.423 83.4632 264.81 83.8629 265.166 84.2658C265.578 84.6 265.987 84.9032 266.392 85.1753C266.797 85.4474 267.276 85.5233 267.829 85.403C268.104 85.6259 268.292 85.9206 268.392 86.2871C268.549 86.585 268.675 86.8862 268.769 87.1905C268.863 87.4949 268.986 87.765 269.136 88.0007C269.342 88.1679 269.628 88.201 269.995 88.1001C269.275 90.2484 268.352 91.9466 267.225 93.1947C266.153 94.3741 264.87 95.3243 263.373 96.0452C261.877 96.7661 260.182 97.382 258.287 97.893C256.454 98.3975 254.411 98.9867 252.156 99.6607C251.609 99.8432 251.14 99.8605 250.747 99.7127C250.361 99.6271 249.92 99.6102 249.422 99.6618C248.025 100.121 246.344 100.578 244.381 101.034C242.417 101.489 240.407 101.792 238.349 101.943C236.291 102.094 234.304 102.017 232.387 101.714C230.477 101.472 228.87 100.822 227.566 99.7636C227.024 99.3801 226.63 98.9183 226.385 98.3782C226.196 97.7694 225.744 97.3452 225.028 97.1053C224.882 96.3036 224.664 95.4152 224.374 94.4399C224.084 93.4646 223.791 92.4582 223.495 91.4208C223.192 90.3212 222.924 89.2494 222.69 88.2055C222.518 87.1551 222.48 86.1851 222.576 85.2954C222.666 84.3436 222.952 83.4656 223.434 82.6615C223.978 81.851 224.112 81.0202 223.835 80.1693C224.139 80.0748 224.309 79.9 224.346 79.6449C224.376 79.3276 224.611 79.1775 225.053 79.1945C225.31 78.0367 225.604 76.938 225.936 75.8981C226.268 74.8583 226.603 73.8495 226.941 72.8718C227.342 71.8877 227.711 70.9068 228.05 69.9291C228.444 68.8828 228.797 67.7465 229.109 66.5202C228.155 65.8024 227.412 64.9999 226.88 64.1126C226.404 63.1567 226.024 62.2221 225.741 61.309C225.451 60.3337 225.192 59.3552 224.964 58.3735C224.73 57.3296 224.403 56.2954 223.982 55.2708C224.507 54.2738 225.176 53.4503 225.988 52.8004C226.856 52.082 227.799 51.4813 228.817 50.9986C229.835 50.5159 230.953 50.0856 232.17 49.7078C233.388 49.3301 234.664 48.9147 236 48.4619C238.402 47.3955 240.545 46.5447 242.427 45.9094C244.371 45.2677 246.262 44.7256 248.102 44.2833C249.996 43.7723 251.957 43.286 253.982 42.8243C256.008 42.3626 258.3 41.7475 260.86 40.9791C261.477 41.4805 262.035 41.7053 262.532 41.6537C262.723 41.0684 262.986 40.8839 263.323 41.1003C263.715 41.2481 263.851 41.0454 263.731 40.4924C264.463 41.4846 265.333 42.3054 266.343 42.9545C267.409 43.535 268.558 44.0126 269.791 44.3873ZM17.2855 166.025C17.1717 165.535 17.0022 165.112 16.7769 164.759C16.6074 164.336 16.4036 163.886 16.1655 163.408C15.7772 162.695 15.4135 161.916 15.0744 161.071C14.7354 160.227 14.5046 159.214 14.3819 158.033C14.4417 157.398 14.5519 156.947 14.7126 156.679C14.8668 156.349 15.0275 156.08 15.1946 155.875L15.3933 154.157L16.792 154.012C17.2958 154.023 17.7964 154.002 18.2937 153.95C18.8532 153.892 19.3816 153.838 19.8789 153.786C22.2412 153.541 24.656 153.196 27.1232 152.751C29.5905 152.306 32.1167 151.824 34.7018 151.304C37.5227 150.634 40.5709 150.035 43.8463 149.506C44.0861 148.79 44.2274 148.336 44.2702 148.143C44.3752 147.943 44.4769 147.713 44.5754 147.451L45.5431 146.785C46.9664 146.574 47.9804 146.658 48.5851 147.035C49.1833 147.35 49.6572 147.677 50.0068 148.018C51.6102 147.726 53.2414 147.399 54.9006 147.039C56.5532 146.616 58.268 146.186 60.045 145.75C62.4994 145.181 64.9848 144.609 67.5013 144.034C70.0178 143.458 72.4883 143.044 74.9128 142.793C75.9696 142.683 76.9675 142.611 77.9064 142.576C78.8453 142.541 79.7564 142.541 80.6397 142.575L81.8458 143.298C82.1396 143.707 82.4924 144.079 82.9042 144.413C83.3159 144.748 83.7898 145.075 84.3258 145.397C85.3358 146.046 86.334 146.885 87.3206 147.913C88.3692 148.936 88.8822 150.547 88.8595 152.749L88.4901 153.73C88.2673 154.004 87.9823 154.285 87.6351 154.573L86.8285 155.882L85.8028 155.988C85.1811 156.053 84.7213 156.164 84.4234 156.32C84.119 156.415 83.7589 156.578 83.3431 156.809C83.1074 156.959 82.8406 157.113 82.5426 157.269C82.2383 157.364 81.906 157.493 81.546 157.656C80.8557 157.665 80.324 157.688 79.951 157.727C79.5781 157.766 79.1429 157.811 78.6456 157.863C76.7806 158.056 74.7731 158.39 72.6231 158.865C70.4732 159.34 68.3886 159.839 66.3694 160.363C64.8968 160.704 63.4863 161.039 62.1381 161.368C60.7833 161.634 59.5529 161.888 58.4469 162.128C57.993 163.809 57.582 165.297 57.2138 166.592C56.8456 167.887 56.4463 169.185 56.0159 170.486C55.5856 171.788 55.1895 173.117 54.8277 174.474C54.4595 175.769 54.1385 177.216 53.8648 178.816C53.235 180.012 52.7263 181.164 52.3387 182.273C51.9447 183.319 51.66 184.511 51.4848 185.849C50.662 187.003 50.0976 188.224 49.7916 189.512C49.5477 190.794 49.3155 191.887 49.0951 192.789L48.8673 194.227C48.4774 194.707 48.2331 195.078 48.1346 195.34C48.0983 195.595 47.9719 195.891 47.7555 196.227C47.653 197.055 47.485 197.858 47.2516 198.636C47.1596 198.96 47.0707 199.314 46.9851 199.7C46.8931 200.024 46.8878 200.276 46.9694 200.456C46.916 201.153 46.7844 201.701 46.5745 202.099C46.6132 202.472 46.6209 202.849 46.5974 203.228C46.574 203.608 46.5506 203.987 46.5272 204.366C46.448 204.814 46.3967 205.228 46.3733 205.608C46.3434 205.925 46.4068 206.233 46.5634 206.53C46.7757 206.76 46.988 206.989 47.2003 207.218C47.4127 207.448 47.6003 207.742 47.7634 208.102C47.9007 208.214 48.0658 208.291 48.2587 208.334C48.4517 208.377 48.6168 208.454 48.754 208.565C49.2965 208.949 49.7886 209.149 50.2302 209.166L51.2789 210.188C51.8843 212.387 51.7231 214.163 50.7954 215.516C49.8249 217.062 48.0342 217.971 45.4232 218.242L44.1081 218.284C43.6277 217.894 43.35 217.641 43.2749 217.523C42.6896 217.332 42.2008 217.163 41.8084 217.015C41.4225 216.93 41.0515 216.685 40.6955 216.282C40.5583 216.171 40.3964 216.125 40.2099 216.144C40.017 216.102 39.8519 216.025 39.7146 215.913C39.0736 215.791 38.5537 215.625 38.1549 215.415L37.071 214.962C37.0686 214.334 37.0545 213.896 37.0287 213.647C36.4604 213.015 35.9788 212.311 35.5841 211.535C35.2515 210.753 34.9468 209.936 34.6699 209.085C34.4124 208.421 34.1613 207.818 33.9167 207.278C33.7343 206.732 33.4651 206.257 33.109 205.854C32.5328 201.515 32.5592 197.837 33.1883 194.818C33.8109 191.737 34.5365 188.74 35.365 185.826C35.8317 184.27 36.2641 182.686 36.6622 181.073C37.0603 179.461 37.393 177.824 37.6603 176.163L38.5795 175.03C38.976 174.612 39.2331 174.366 39.351 174.291C39.2671 173.482 39.3418 172.689 39.5751 171.911C39.802 171.07 40.06 170.227 40.3491 169.38C40.5461 168.857 40.7121 168.337 40.8469 167.82C41.0439 167.297 41.1541 166.846 41.1776 166.466C40.7424 166.511 40.3416 166.584 39.975 166.685C39.6642 166.718 39.3255 166.784 38.959 166.885C38.1702 167.156 37.4028 167.33 36.6568 167.407C36.0973 167.465 35.69 167.476 35.4349 167.44C34.9634 167.74 34.5133 167.944 34.0846 168.051C33.6494 168.096 33.2143 168.141 32.7791 168.187L31.6601 168.303L30.5411 168.419C29.7952 168.497 29.2143 168.651 28.7985 168.883C27.9282 168.973 27.3687 169.031 27.12 169.057C26.8713 169.083 26.5916 169.112 26.2808 169.144L25.1618 169.26L24.0428 169.377C23.5455 169.428 22.9828 169.455 22.3546 169.458C21.7201 169.398 21.0415 169.217 20.319 168.915L19.5887 168.237C19.1447 167.592 18.7641 167.254 18.4468 167.224L17.392 167.051L17.2855 166.025ZM92.702 201.551C92.2764 204.108 91.8517 206.069 91.4278 207.433C91.0595 208.727 90.418 210.114 89.5033 211.591C88.6822 211.551 88.1324 211.702 87.8538 212.045C87.5753 212.388 87.2624 212.703 86.9152 212.991C86.3687 213.173 85.9646 213.215 85.703 213.117C85.4414 213.018 85.2077 212.885 85.0019 212.718C84.8024 212.613 84.5376 212.484 84.2075 212.329C83.9459 212.231 83.5353 212.211 82.9759 212.269C82.7999 211.784 82.596 211.334 82.3644 210.919C82.1948 210.496 81.7746 210.383 81.1037 210.578C81.1764 210.068 81.1655 209.661 81.0711 209.356C80.9702 208.99 80.8446 208.689 80.6945 208.453C80.6001 208.148 80.5088 207.875 80.4208 207.633C80.3264 207.329 80.3188 206.952 80.3979 206.504C80.0871 206.537 79.8158 206.345 79.5841 205.929C79.3524 205.513 79.0897 205.101 78.7958 204.691C78.8661 203.553 78.9429 202.477 79.0261 201.463C79.1093 200.449 79.23 199.494 79.3883 198.598C79.6088 197.695 79.767 196.799 79.8632 195.909C79.9593 195.019 79.7724 194.128 79.3026 193.234C79.5706 193.395 79.7539 193.344 79.8524 193.083C79.9445 192.759 79.999 192.376 80.0159 191.935C80.0265 191.431 80.0091 190.961 79.9639 190.526C79.9123 190.029 79.8392 189.628 79.7448 189.324C80.1986 187.643 80.5249 185.944 80.7236 184.227C80.978 182.441 81.1734 180.692 81.31 178.982C81.5086 177.264 81.7106 175.578 81.9157 173.923C82.1209 172.268 82.4633 170.725 82.9429 169.292C83.6138 169.097 84.3695 169.113 85.2099 169.34C86.106 169.498 86.67 169.785 86.9016 170.201C88.3888 168.79 89.6637 167.149 90.7263 165.28C91.7824 163.348 92.876 161.475 94.0072 159.661C95.1384 157.847 96.4132 156.206 97.8318 154.739C99.3126 153.266 101.252 152.279 103.651 151.779C104.991 152.582 106.459 153.403 108.054 154.243C109.705 155.014 111.108 156.125 112.265 157.576C112.788 157.773 113.221 158.011 113.564 158.289C113.963 158.499 114.427 158.734 114.957 158.993L115.073 160.112C115.89 160.718 116.564 161.465 117.096 162.353C117.684 163.171 118.219 164.09 118.702 165.108C119.178 166.064 119.658 167.051 120.14 168.069C120.617 169.025 121.152 169.943 121.746 170.824C121.654 171.148 121.621 171.434 121.647 171.682C121.666 171.869 121.72 172.083 121.808 172.326C121.958 172.561 122.077 172.8 122.165 173.042C122.253 173.285 122.289 173.627 122.272 174.068C122.369 176.823 121.697 179.123 120.255 180.97C118.875 182.81 117.124 184.405 115.002 185.757C112.874 187.046 110.574 188.196 108.103 189.206C105.632 190.217 103.416 191.264 101.455 192.347C101.48 192.596 101.586 192.711 101.773 192.691C102.022 192.666 102.131 192.811 102.101 193.129C103.69 193.906 104.949 194.529 105.877 194.999C106.805 195.468 107.662 195.85 108.447 196.146C109.294 196.435 110.168 196.689 111.071 196.91C112.029 197.062 113.336 197.24 114.991 197.445C116.646 197.65 117.922 197.832 118.818 197.99C119.77 198.08 120.628 198.179 121.394 198.288C122.152 198.335 122.911 198.382 123.67 198.429C124.485 198.407 125.614 198.384 127.056 198.36C127.674 198.862 128.211 199.497 128.668 200.266C129.181 200.967 129.541 201.715 129.749 202.51C129.951 203.244 130.06 203.986 130.075 204.739C130.084 205.429 129.924 206.011 129.597 206.485C129.678 206.665 129.812 206.745 129.999 206.726C130.241 206.638 130.489 206.612 130.745 206.649C130.397 206.936 130.119 207.279 129.909 207.678C129.699 208.077 129.489 208.475 129.279 208.874C129.069 209.273 128.822 209.613 128.537 209.894C128.258 210.237 127.842 210.469 127.289 210.589C125.44 211.535 123.018 211.818 120.026 211.438C117.039 211.119 113.218 210.322 108.561 209.046C106.233 208.409 104.321 207.853 102.827 207.38C101.388 206.838 100.108 206.311 98.987 205.799C97.9213 205.219 96.9146 204.601 95.9668 203.945C95.0812 203.283 93.9929 202.485 92.702 201.551ZM102.715 168.182C102.135 169.247 101.451 170.229 100.665 171.128C99.9405 172.02 99.2195 172.943 98.5018 173.897C97.8397 174.783 97.2527 175.787 96.7408 176.908C96.2224 177.967 95.9099 179.194 95.8033 180.587C97.9533 180.112 100.161 179.286 102.426 178.108C104.685 176.868 106.827 175.704 108.85 174.614C108.401 172.712 107.556 171.229 106.314 170.164C105.135 169.093 103.935 168.432 102.715 168.182ZM178.871 194.488C178.608 195.583 178.161 196.729 177.531 197.926C176.957 199.053 176.218 200.104 175.314 201.078C174.465 201.983 173.479 202.776 172.356 203.458C171.233 204.141 170.022 204.58 168.723 204.778C167.896 204.676 167.314 204.516 166.977 204.3C166.709 204.139 166.41 203.982 166.08 203.827C165.88 203.722 165.684 203.649 165.491 203.606C165.354 203.494 165.22 203.414 165.089 203.365L163.922 203.015L164.169 201.764C164.241 201.254 164.172 200.884 163.959 200.654C163.741 200.363 163.326 199.998 162.714 199.558C162.509 199.391 162.303 199.224 162.097 199.057C161.891 198.89 161.716 198.72 161.573 198.546L159.803 196.939L162.253 196.025C163.762 195.428 164.73 194.762 165.156 194.027C165.645 193.285 165.743 192.112 165.451 190.509C164.181 190.389 163.121 190.468 162.27 190.745C161.482 191.015 160.665 191.32 159.821 191.659C158.734 192.086 157.613 192.485 156.458 192.856C155.358 193.159 154.124 193.381 152.757 193.523C152.259 193.575 151.793 193.624 151.358 193.669C150.916 193.652 150.444 193.638 149.94 193.627L148.988 193.538C148.793 192.867 148.63 192.507 148.499 192.458C148.362 192.346 148.224 192.235 148.087 192.123C147.744 191.845 147.36 191.476 146.935 191.018C146.566 190.49 146.433 189.813 146.536 188.985C146.167 188.458 145.922 187.918 145.802 187.365C145.507 188.15 145.308 188.956 145.205 189.783L144.929 190.755L144.016 191.038C143.898 191.113 143.821 191.278 143.784 191.533C143.742 191.726 143.727 191.885 143.739 192.009L143.438 193.643C143.326 193.78 143.215 193.917 143.104 194.055C142.986 194.13 142.871 194.236 142.76 194.373C142.693 194.945 142.596 195.521 142.468 196.1C142.339 196.679 142.208 197.227 142.073 197.743C141.846 198.584 141.65 199.421 141.485 200.255C141.376 201.02 141.392 201.773 141.531 202.512L141.265 203.577C140.993 203.982 140.683 204.328 140.336 204.616C139.982 204.841 139.629 205.066 139.275 205.291C139.164 205.429 138.99 205.572 138.754 205.723C138.574 205.804 138.425 205.882 138.307 205.957L138.134 207.012L137.035 207.315C136.364 207.51 135.876 207.655 135.572 207.75C135.329 207.838 135.022 207.901 134.649 207.94L133.707 207.943C132.965 207.455 132.391 207.074 131.986 206.802C131.574 206.468 131.103 206.171 130.574 205.912C129.937 205.224 129.568 204.697 129.467 204.331C129.366 203.964 129.269 203.629 129.174 203.324C129.011 202.964 128.917 202.66 128.891 202.411C128.803 202.169 128.69 201.992 128.553 201.881L127.224 200.888L128.163 199.942L128.092 198.347C129.006 195.047 129.995 191.866 131.059 188.802C132.186 185.732 133.337 182.596 134.512 179.395C134.906 178.349 135.269 177.305 135.601 176.266C135.995 175.219 136.389 174.173 136.783 173.127C136.702 172.947 136.648 172.732 136.622 172.484C136.596 172.235 136.629 171.949 136.721 171.625C137.296 170.497 137.758 169.507 138.109 168.653C138.454 167.738 138.799 166.822 139.144 165.907C139.531 164.798 139.922 163.721 140.316 162.675C140.772 161.622 141.35 160.525 142.048 159.384L143.472 158.577C143.652 158.495 143.863 158.41 144.106 158.322C144.341 158.172 144.615 158.081 144.926 158.049L146.344 158.09C148 157.101 149.407 155.824 150.564 154.259C151.715 152.631 152.867 150.721 154.022 148.527L154.819 147.125L156.109 147.745C156.439 147.899 156.893 148.04 157.472 148.169C158.045 148.235 158.651 148.329 159.292 148.451C160.437 148.584 161.523 148.754 162.55 148.961C163.577 149.169 164.433 149.551 165.12 150.108C165.596 151.064 165.891 151.787 166.005 152.278C166.119 152.769 166.263 153.257 166.439 153.741C166.736 154.779 167.001 155.819 167.235 156.863C167.531 157.901 167.778 159.069 167.976 160.368C168.396 161.392 168.755 162.423 169.051 163.461C169.403 164.43 169.727 165.433 170.023 166.47C170.489 167.93 170.952 169.359 171.411 170.756C171.864 172.091 172.404 173.355 173.03 174.547C173.527 174.495 173.841 174.494 173.972 174.543C174.27 174.386 174.571 174.261 174.876 174.167C175.242 174.066 175.64 173.961 176.068 173.854L177.084 173.654L177.554 174.548C177.649 174.852 177.992 175.131 178.584 175.384C179.398 175.362 180.008 175.487 180.413 175.759C180.812 175.969 181.183 176.213 181.526 176.492C181.801 176.715 182.069 176.876 182.33 176.974L183.787 177.388L183.187 178.864C182.681 180.048 181.893 181.229 180.821 182.409C179.806 183.52 178.618 184.491 177.259 185.324C177.36 185.69 177.43 186.06 177.469 186.433C177.563 186.737 177.692 187.07 177.855 187.43C178.151 188.467 178.42 189.539 178.66 190.645C178.901 191.751 179.02 192.901 179.019 194.095L178.871 194.488ZM150.247 181.154C152.099 180.836 153.764 180.537 155.243 180.258C156.778 179.91 158.459 179.453 160.285 178.886C159.656 177.067 158.99 175.188 158.286 173.25C157.576 171.25 156.837 169.285 156.071 167.354L155.609 168.344C154.501 169.779 153.44 171.366 152.427 173.105C151.476 174.837 150.67 176.46 150.011 177.974C149.696 178.572 149.381 179.17 149.066 179.769C148.751 180.367 148.467 180.962 148.215 181.554C148.581 181.453 148.92 181.386 149.231 181.354C149.604 181.315 149.942 181.248 150.247 181.154ZM211.363 182.442C211.391 183.319 211.261 184.181 210.972 185.027C210.738 185.806 210.412 186.594 209.992 187.391C209.566 188.127 209.077 188.869 208.526 189.617C208.031 190.297 207.53 190.914 207.022 191.47C207.293 192.259 207.357 192.88 207.216 193.335C207.13 193.721 207.161 194.315 207.307 195.116C206.632 197.7 205.374 199.496 203.53 200.504C201.756 201.568 199.968 201.596 198.167 200.59C197.431 200.163 196.776 199.603 196.201 198.909C195.682 198.146 195.009 197.713 194.182 197.61C194.258 196.534 194.055 195.487 193.573 194.469C193.09 193.451 192.628 192.933 192.186 192.916C191.864 191.63 191.439 190.261 190.911 188.807C190.383 187.354 189.886 185.898 189.421 184.438C188.948 182.916 188.514 181.453 188.116 180.049C187.775 178.576 187.571 177.215 187.504 175.965C187.502 175.337 187.319 174.791 186.957 174.326C186.656 173.854 186.408 173.283 186.213 172.612C185.816 171.208 185.568 169.726 185.469 168.165C185.425 166.536 185.329 165.007 185.181 163.577C185.039 162.209 184.794 160.758 184.446 159.223C184.154 157.62 183.871 156.11 183.598 154.693C183.319 153.214 183.118 151.883 182.995 150.702C182.866 149.459 182.922 148.479 183.161 147.763C183.457 146.978 183.893 146.336 184.469 145.837C185.102 145.268 185.668 144.675 186.17 144.058C187.55 144.04 188.696 144.486 189.608 145.397C190.519 146.308 190.927 147.208 190.831 148.098C192.22 148.77 193.356 149.721 194.237 150.949C195.174 152.108 195.945 153.473 196.548 155.044C197.206 156.547 197.723 158.19 198.096 159.973C198.463 161.695 198.8 163.419 199.105 165.147C199.403 166.812 199.696 168.416 199.981 169.957C200.267 171.498 200.654 172.809 201.144 173.889C203.102 170.356 204.725 167.234 206.015 164.524C207.298 161.751 208.625 159.1 209.996 156.57C211.367 154.04 212.921 151.459 214.659 148.828C216.396 146.197 218.692 143.194 221.546 139.818C222.174 139.816 222.684 139.889 223.077 140.036C223.531 140.178 223.92 140.294 224.244 140.387C224.568 140.479 224.954 140.564 225.402 140.643C225.844 140.66 226.431 140.568 227.164 140.366C227.477 140.962 227.712 141.409 227.869 141.707C228.019 141.942 228.141 142.213 228.236 142.517C228.386 142.753 228.546 143.082 228.715 143.504C228.947 143.92 229.291 144.512 229.748 145.282C229.954 145.449 230.042 145.691 230.012 146.008C229.982 146.326 229.952 146.643 229.922 146.96C229.948 147.209 229.968 147.395 229.98 147.52C229.993 147.644 230.149 147.628 230.447 147.471C230.351 148.361 230.093 149.205 229.673 150.002C229.309 150.731 229.209 151.59 229.375 152.578C228.139 154.592 226.753 156.683 225.219 158.853C223.747 161.017 222.251 163.246 220.73 165.54C219.271 167.828 217.887 170.234 216.578 172.758C215.263 175.219 214.178 177.783 213.324 180.448C213.013 180.48 212.774 180.599 212.607 180.805C212.502 181.004 212.4 181.235 212.302 181.496C212.197 181.696 212.061 181.898 211.893 182.104C211.788 182.304 211.612 182.416 211.363 182.442ZM274.941 139.363C275.048 139.792 275.084 140.134 275.047 140.389C275.067 140.576 275.055 140.765 275.012 140.958C275.032 141.145 275.054 141.362 275.08 141.611C275.099 141.797 275.194 142.102 275.363 142.524C274.277 144.773 272.906 146.392 271.249 147.381C269.648 148.302 267.873 149.052 265.922 149.631C263.965 150.148 261.949 150.703 259.874 151.296C257.861 151.882 255.894 152.903 253.971 154.359C253.131 154.133 252.385 154.21 251.734 154.592C251.144 154.967 250.221 155.157 248.965 155.162C248.631 155.574 248.194 155.902 247.654 156.147C247.107 156.329 246.564 156.543 246.023 156.787C246.33 157.321 246.485 157.902 246.487 158.53C246.545 159.089 246.687 159.546 246.912 159.9C249.107 159.86 251.498 159.58 254.083 159.061C256.73 158.534 259.325 158.108 261.867 157.781C261.962 158.085 261.953 158.306 261.842 158.443C261.724 158.519 261.709 158.677 261.797 158.919C262.264 159.185 262.741 159.544 263.228 159.996C263.709 160.386 264.189 160.776 264.669 161.166C265.15 161.556 265.623 161.884 266.091 162.149C266.614 162.346 267.183 162.382 267.798 162.255C268.099 162.726 268.312 163.27 268.439 163.885C268.621 164.431 268.621 165.028 268.436 165.676C267.513 166.463 266.592 167.281 265.675 168.131C264.752 168.918 263.759 169.649 262.698 170.325C261.7 170.994 260.598 171.58 259.394 172.082C258.245 172.515 256.921 172.778 255.423 172.871C255.112 172.903 254.863 172.929 254.677 172.949C254.552 172.962 254.356 172.888 254.088 172.727C253.623 173.089 252.918 173.257 251.972 173.229C251.089 173.195 250.415 173.36 249.95 173.722C249.234 173.482 248.382 173.445 247.394 173.611C246.461 173.707 245.609 173.67 244.837 173.499C243.978 174.908 243.222 176.4 242.569 177.976C241.915 179.552 241.365 181.211 240.918 182.955C243.064 183.046 244.817 182.989 246.178 182.785C247.602 182.575 248.929 182.343 250.159 182.089C251.383 181.773 252.641 181.486 253.934 181.226C255.22 180.904 256.861 180.671 258.857 180.526C260.029 179.713 261.445 179.126 263.104 178.766C264.819 178.336 266.365 177.798 267.743 177.153C268.26 177.288 268.731 177.584 269.155 178.043C269.573 178.439 269.96 178.839 270.317 179.242C270.728 179.576 271.137 179.879 271.542 180.151C271.947 180.423 272.426 180.499 272.979 180.379C273.254 180.602 273.442 180.897 273.543 181.263C273.699 181.561 273.825 181.862 273.919 182.167C274.014 182.471 274.136 182.741 274.286 182.977C274.492 183.144 274.778 183.177 275.145 183.076C274.425 185.224 273.502 186.923 272.375 188.171C271.303 189.35 270.02 190.3 268.524 191.021C267.028 191.742 265.332 192.358 263.437 192.869C261.605 193.373 259.561 193.963 257.306 194.637C256.759 194.819 256.29 194.837 255.897 194.689C255.512 194.603 255.07 194.586 254.573 194.638C253.175 195.097 251.495 195.554 249.531 196.01C247.568 196.465 245.557 196.768 243.499 196.919C241.441 197.07 239.454 196.993 237.537 196.69C235.627 196.448 234.02 195.798 232.716 194.74C232.174 194.356 231.78 193.894 231.536 193.354C231.347 192.745 230.894 192.321 230.178 192.081C230.032 191.28 229.814 190.391 229.524 189.416C229.234 188.441 228.941 187.434 228.645 186.397C228.342 185.297 228.074 184.225 227.84 183.182C227.668 182.131 227.63 181.161 227.726 180.271C227.816 179.32 228.102 178.442 228.584 177.638C229.128 176.827 229.262 175.996 228.985 175.145C229.289 175.051 229.46 174.876 229.496 174.621C229.526 174.304 229.762 174.154 230.203 174.17C230.46 173.013 230.754 171.914 231.086 170.874C231.418 169.834 231.753 168.826 232.091 167.848C232.492 166.864 232.861 165.883 233.2 164.905C233.594 163.859 233.947 162.723 234.259 161.496C233.305 160.778 232.562 159.976 232.03 159.089C231.554 158.133 231.174 157.198 230.891 156.285C230.601 155.31 230.342 154.331 230.115 153.35C229.88 152.306 229.553 151.271 229.133 150.247C229.657 149.25 230.326 148.426 231.138 147.776C232.006 147.058 232.949 146.457 233.967 145.975C234.985 145.492 236.103 145.062 237.321 144.684C238.538 144.306 239.814 143.891 241.15 143.438C243.553 142.372 245.695 141.521 247.577 140.885C249.521 140.244 251.413 139.702 253.252 139.259C255.147 138.748 257.107 138.262 259.132 137.8C261.158 137.339 263.451 136.724 266.01 135.955C266.627 136.456 267.185 136.681 267.682 136.63C267.873 136.044 268.136 135.86 268.473 136.076C268.865 136.224 269.001 136.021 268.881 135.468C269.613 136.461 270.483 137.281 271.493 137.931C272.559 138.511 273.708 138.989 274.941 139.363ZM302.666 188.513C300.983 189.253 299.145 190.009 297.152 190.782C295.159 191.554 293.136 192.047 291.085 192.26C287.976 192.583 285.44 192.061 283.476 190.694C283.094 190.042 282.766 189.605 282.492 189.382C282.279 189.153 282.067 188.924 281.855 188.694C281.698 188.396 281.563 188.002 281.449 187.511C280.613 186.718 279.919 185.785 279.367 184.711C278.81 183.575 278.376 182.426 278.067 181.265C277.813 180.034 277.653 178.794 277.586 177.544C277.582 176.288 277.676 175.084 277.871 173.933C277.97 173.672 278.006 173.416 277.98 173.168C278.016 172.913 278.05 172.626 278.079 172.309C278.225 171.289 278.373 170.299 278.525 169.341C278.739 168.376 279.059 167.526 279.486 166.791C279.179 166.257 279.114 165.635 279.292 164.926C279.47 164.216 279.685 163.565 279.938 162.974C280.563 160.521 281.071 158.457 281.463 156.783C281.91 155.04 282.361 153.328 282.814 151.647C283.581 148.74 284.288 145.87 284.936 143.038C285.585 140.206 286.118 137.166 286.534 133.918C286.999 133.556 287.35 133.299 287.585 133.149C287.946 132.986 288.247 132.86 288.489 132.772C289.666 133.216 291.03 133.64 292.58 134.044C294.123 134.387 295.392 134.506 296.387 134.403C296.917 134.662 297.253 134.878 297.397 135.052C297.534 135.163 297.671 135.275 297.809 135.386C298.576 136.123 299.254 136.901 299.842 137.72C300.423 138.477 300.692 139.548 300.647 140.935C300.332 141.534 300.081 141.842 299.895 141.862C299.713 143.137 299.481 144.23 299.198 145.139C298.978 146.041 298.726 146.947 298.444 147.856C298.106 148.834 297.798 149.808 297.522 150.779C297.246 151.751 297.055 152.933 296.948 154.327C296.732 154.663 296.574 154.962 296.476 155.224C296.439 155.479 296.375 155.768 296.283 156.092C296.191 156.416 296.071 156.774 295.923 157.166C295.831 157.49 295.643 157.792 295.358 158.073C295.339 159.709 295.164 161.047 294.832 162.087C294.562 163.12 294.261 164.157 293.93 165.196C293.371 167.077 292.874 168.951 292.44 170.818C292.067 172.679 291.939 174.766 292.053 177.079C292.351 176.922 292.624 176.831 292.873 176.805C293.184 176.773 293.464 176.744 293.712 176.718C294.272 176.66 294.934 176.685 295.699 176.794C297.461 175.606 299.42 174.806 301.577 174.393C303.795 173.974 305.989 173.621 308.159 173.333C309.029 173.242 309.899 173.152 310.77 173.062C311.64 172.971 312.442 172.825 313.175 172.623C313.766 172.876 314.128 173.027 314.258 173.076C314.445 173.057 314.694 173.031 315.004 172.999C315.44 172.954 315.816 172.946 316.133 172.976C316.95 173.582 317.717 174.005 318.433 174.245C319.149 174.485 319.893 174.69 320.665 174.862C321.374 175.039 322.056 175.251 322.71 175.498C323.42 175.675 324.111 175.98 324.784 176.413L325.854 180.355C326.347 180.869 326.572 181.223 326.529 181.416C326.581 181.913 326.495 182.299 326.272 182.574L326.565 183.58C325.652 183.863 325.022 184.149 324.675 184.436C324.39 184.717 324.108 185.029 323.83 185.372C323.339 185.486 322.969 185.556 322.72 185.582C322.534 185.601 322.347 185.62 322.161 185.64C321.291 185.73 320.25 185.995 319.039 186.435C317.302 186.05 315.533 185.951 313.73 186.138C313.046 186.209 312.334 186.315 311.595 186.454C310.855 186.594 310.116 186.734 309.376 186.873C308.643 187.075 307.876 187.249 307.074 187.395C306.334 187.535 305.561 187.646 304.752 187.73L302.666 188.513ZM353.58 183.225C351.897 183.966 350.059 184.722 348.066 185.495C346.072 186.267 344.05 186.76 341.998 186.973C338.89 187.296 336.354 186.774 334.39 185.407C334.008 184.755 333.68 184.318 333.405 184.095C333.193 183.866 332.981 183.636 332.768 183.407C332.612 183.109 332.476 182.715 332.363 182.224C331.526 181.431 330.832 180.498 330.281 179.424C329.723 178.288 329.29 177.139 328.981 175.977C328.727 174.747 328.567 173.507 328.5 172.257C328.495 171.001 328.59 169.797 328.785 168.646C328.883 168.384 328.92 168.129 328.894 167.881C328.93 167.625 328.963 167.339 328.993 167.022C329.139 166.002 329.287 165.012 329.439 164.054C329.653 163.089 329.973 162.239 330.399 161.503C330.093 160.97 330.028 160.348 330.206 159.638C330.383 158.929 330.599 158.278 330.851 157.686C331.476 155.234 331.985 153.17 332.376 151.496C332.824 149.753 333.274 148.041 333.728 146.36C334.494 143.453 335.202 140.583 335.85 137.751C336.499 134.919 337.031 131.879 337.448 128.631C337.913 128.268 338.263 128.012 338.499 127.862C338.859 127.699 339.16 127.573 339.403 127.485C340.58 127.929 341.943 128.353 343.493 128.757C345.037 129.099 346.306 129.219 347.301 129.116C347.83 129.375 348.167 129.591 348.311 129.765C348.448 129.876 348.585 129.988 348.722 130.099C349.49 130.836 350.168 131.614 350.756 132.433C351.337 133.189 351.605 134.261 351.561 135.648C351.246 136.246 350.995 136.555 350.809 136.575C350.627 137.85 350.395 138.942 350.112 139.852C349.892 140.754 349.64 141.66 349.358 142.569C349.019 143.547 348.712 144.521 348.436 145.492C348.16 146.464 347.968 147.646 347.862 149.039C347.645 149.376 347.488 149.675 347.389 149.937C347.353 150.192 347.289 150.481 347.197 150.805C347.105 151.129 346.985 151.487 346.837 151.879C346.745 152.203 346.556 152.505 346.271 152.786C346.253 154.422 346.078 155.76 345.746 156.799C345.476 157.833 345.175 158.869 344.843 159.909C344.285 161.79 343.788 163.663 343.353 165.531C342.981 167.392 342.852 169.479 342.967 171.792C343.265 171.635 343.538 171.544 343.787 171.518C344.098 171.486 344.377 171.457 344.626 171.431C345.185 171.373 345.848 171.398 346.613 171.507C348.375 170.319 350.334 169.519 352.49 169.106C354.709 168.687 356.903 168.334 359.072 168.046C359.943 167.955 360.813 167.865 361.683 167.774C362.554 167.684 363.355 167.538 364.088 167.336C364.68 167.589 365.041 167.74 365.172 167.789C365.359 167.77 365.607 167.744 365.918 167.712C366.353 167.666 366.73 167.659 367.047 167.689C367.864 168.295 368.63 168.718 369.346 168.958C370.063 169.198 370.807 169.403 371.578 169.575C372.288 169.752 372.97 169.964 373.624 170.21C374.333 170.388 375.025 170.693 375.698 171.126L376.767 175.068C377.261 175.582 377.486 175.936 377.443 176.129C377.495 176.626 377.409 177.012 377.186 177.287L377.479 178.293C376.566 178.576 375.936 178.862 375.589 179.149C375.304 179.43 375.022 179.742 374.743 180.085C374.253 180.199 373.883 180.269 373.634 180.295C373.448 180.314 373.261 180.333 373.075 180.353C372.204 180.443 371.164 180.708 369.953 181.148C368.216 180.763 366.446 180.664 364.644 180.851C363.96 180.922 363.248 181.027 362.508 181.167C361.769 181.307 361.029 181.446 360.29 181.586C359.557 181.788 358.789 181.962 357.988 182.108C357.248 182.247 356.474 182.359 355.666 182.443L353.58 183.225ZM426.563 123.618C426.67 124.047 426.706 124.389 426.67 124.644C426.689 124.83 426.677 125.02 426.634 125.213C426.654 125.399 426.676 125.617 426.702 125.866C426.722 126.052 426.816 126.357 426.986 126.779C425.9 129.028 424.528 130.647 422.872 131.636C421.271 132.556 419.495 133.306 417.544 133.886C415.587 134.403 413.571 134.958 411.496 135.551C409.484 136.137 407.516 137.158 405.594 138.614C404.753 138.387 404.007 138.465 403.356 138.847C402.766 139.222 401.843 139.412 400.587 139.417C400.253 139.829 399.816 140.157 399.276 140.401C398.729 140.584 398.186 140.797 397.646 141.042C397.952 141.576 398.107 142.156 398.109 142.785C398.167 143.344 398.309 143.801 398.534 144.154C400.73 144.115 403.12 143.835 405.705 143.315C408.352 142.789 410.947 142.363 413.489 142.036C413.584 142.34 413.575 142.561 413.464 142.698C413.346 142.773 413.331 142.932 413.419 143.174C413.886 143.44 414.364 143.799 414.85 144.251C415.331 144.641 415.811 145.031 416.291 145.421C416.772 145.811 417.246 146.138 417.713 146.404C418.236 146.601 418.805 146.636 419.421 146.51C419.721 146.981 419.934 147.524 420.061 148.14C420.244 148.686 420.243 149.283 420.059 149.931C419.135 150.718 418.215 151.536 417.297 152.385C416.374 153.172 415.382 153.904 414.321 154.579C413.322 155.249 412.22 155.834 411.016 156.336C409.867 156.77 408.543 157.033 407.045 157.126C406.734 157.158 406.485 157.184 406.299 157.203C406.174 157.216 405.978 157.142 405.71 156.982C405.245 157.344 404.54 157.512 403.595 157.484C402.711 157.45 402.037 157.614 401.572 157.977C400.856 157.737 400.004 157.7 399.016 157.865C398.083 157.962 397.231 157.925 396.459 157.754C395.6 159.163 394.844 160.655 394.191 162.231C393.538 163.807 392.987 165.466 392.54 167.209C394.686 167.301 396.439 167.244 397.801 167.04C399.224 166.829 400.551 166.597 401.781 166.344C403.005 166.028 404.263 165.74 405.556 165.481C406.842 165.158 408.483 164.925 410.479 164.781C411.651 163.968 413.067 163.381 414.726 163.02C416.441 162.591 417.987 162.053 419.365 161.407C419.882 161.542 420.353 161.839 420.777 162.298C421.196 162.694 421.583 163.094 421.939 163.497C422.35 163.831 422.759 164.134 423.164 164.406C423.569 164.678 424.049 164.754 424.602 164.634C424.876 164.857 425.064 165.151 425.165 165.518C425.321 165.816 425.447 166.117 425.541 166.421C425.636 166.726 425.758 166.996 425.908 167.231C426.114 167.399 426.4 167.432 426.767 167.331C426.047 169.479 425.124 171.177 423.997 172.425C422.926 173.605 421.642 174.555 420.146 175.276C418.65 175.997 416.954 176.613 415.059 177.124C413.227 177.628 411.183 178.217 408.928 178.891C408.381 179.074 407.912 179.091 407.52 178.943C407.134 178.858 406.692 178.841 406.195 178.893C404.797 179.352 403.117 179.809 401.153 180.264C399.19 180.72 397.179 181.023 395.121 181.174C393.063 181.324 391.076 181.248 389.159 180.944C387.249 180.703 385.642 180.053 384.338 178.994C383.796 178.611 383.402 178.149 383.158 177.609C382.969 177 382.516 176.576 381.8 176.336C381.654 175.534 381.436 174.646 381.146 173.671C380.857 172.695 380.564 171.689 380.267 170.652C379.965 169.552 379.696 168.48 379.462 167.436C379.29 166.386 379.252 165.416 379.348 164.526C379.438 163.574 379.724 162.696 380.206 161.892C380.75 161.082 380.884 160.251 380.607 159.4C380.911 159.306 381.082 159.131 381.118 158.876C381.148 158.558 381.384 158.408 381.825 158.425C382.082 157.267 382.376 156.169 382.708 155.129C383.04 154.089 383.375 153.08 383.714 152.103C384.114 151.118 384.483 150.138 384.822 149.16C385.216 148.114 385.569 146.977 385.882 145.751C384.927 145.033 384.184 144.231 383.652 143.343C383.176 142.387 382.796 141.453 382.513 140.54C382.223 139.564 381.964 138.586 381.737 137.604C381.503 136.56 381.175 135.526 380.755 134.502C381.28 133.505 381.948 132.681 382.76 132.031C383.628 131.313 384.571 130.712 385.589 130.229C386.607 129.747 387.725 129.316 388.943 128.939C390.16 128.561 391.437 128.146 392.772 127.693C395.175 126.626 397.317 125.775 399.199 125.14C401.143 124.498 403.035 123.956 404.874 123.514C406.769 123.003 408.729 122.517 410.755 122.055C412.78 121.593 415.073 120.978 417.632 120.21C418.25 120.711 418.807 120.936 419.304 120.884C419.495 120.299 419.759 120.115 420.095 120.331C420.488 120.479 420.624 120.276 420.503 119.723C421.235 120.715 422.105 121.536 423.115 122.185C424.181 122.766 425.33 123.243 426.563 123.618ZM442.85 165.189C442.425 167.747 442 169.708 441.576 171.071C441.208 172.366 440.566 173.752 439.652 175.23C438.831 175.189 438.281 175.341 438.002 175.684C437.724 176.027 437.411 176.342 437.064 176.63C436.517 176.812 436.113 176.854 435.851 176.755C435.59 176.657 435.356 176.524 435.15 176.357C434.951 176.252 434.686 176.122 434.356 175.968C434.094 175.87 433.684 175.849 433.124 175.908C432.948 175.423 432.744 174.973 432.513 174.557C432.343 174.135 431.923 174.022 431.252 174.217C431.325 173.707 431.314 173.299 431.219 172.995C431.119 172.628 430.993 172.327 430.843 172.092C430.748 171.787 430.657 171.514 430.569 171.272C430.475 170.967 430.467 170.591 430.546 170.143C430.235 170.175 429.964 169.984 429.732 169.568C429.501 169.152 429.238 168.739 428.944 168.33C429.014 167.192 429.091 166.115 429.174 165.101C429.258 164.087 429.378 163.132 429.537 162.236C429.757 161.334 429.915 160.437 430.011 159.548C430.108 158.658 429.921 157.766 429.451 156.873C429.719 157.033 429.902 156.983 430.001 156.721C430.093 156.398 430.147 156.015 430.164 155.573C430.175 155.069 430.157 154.6 430.112 154.165C430.061 153.668 429.988 153.267 429.893 152.962C430.347 151.281 430.673 149.582 430.872 147.865C431.126 146.079 431.322 144.331 431.458 142.62C431.657 140.903 431.859 139.217 432.064 137.562C432.269 135.907 432.612 134.363 433.091 132.931C433.762 132.736 434.518 132.752 435.358 132.978C436.254 133.137 436.818 133.424 437.05 133.84C438.537 132.428 439.812 130.788 440.875 128.918C441.931 126.986 443.024 125.113 444.156 123.299C445.287 121.485 446.562 119.845 447.98 118.378C449.461 116.905 451.401 115.918 453.799 115.417C455.139 116.221 456.607 117.042 458.202 117.882C459.853 118.653 461.257 119.764 462.413 121.215C462.936 121.412 463.369 121.65 463.712 121.928C464.111 122.138 464.575 122.373 465.105 122.632L465.221 123.751C466.038 124.357 466.713 125.104 467.245 125.991C467.832 126.81 468.367 127.728 468.85 128.746C469.327 129.702 469.806 130.689 470.289 131.707C470.765 132.663 471.3 133.582 471.894 134.463C471.802 134.786 471.769 135.072 471.795 135.321C471.814 135.508 471.868 135.722 471.956 135.964C472.106 136.2 472.225 136.439 472.313 136.681C472.401 136.923 472.437 137.265 472.42 137.707C472.517 140.462 471.845 142.762 470.403 144.608C469.023 146.448 467.273 148.044 465.151 149.395C463.023 150.684 460.723 151.834 458.251 152.845C455.78 153.856 453.564 154.903 451.603 155.986C451.629 156.235 451.735 156.349 451.921 156.33C452.17 156.304 452.279 156.45 452.249 156.767C453.838 157.545 455.097 158.168 456.025 158.637C456.954 159.106 457.81 159.489 458.595 159.784C459.442 160.073 460.317 160.328 461.219 160.548C462.178 160.7 463.484 160.879 465.139 161.084C466.794 161.289 468.07 161.471 468.966 161.629C469.918 161.719 470.777 161.818 471.542 161.927C472.301 161.974 473.06 162.021 473.819 162.068C474.633 162.046 475.762 162.023 477.205 161.999C477.822 162.5 478.359 163.136 478.816 163.905C479.329 164.606 479.689 165.354 479.898 166.149C480.099 166.882 480.208 167.625 480.223 168.377C480.232 169.068 480.073 169.65 479.745 170.124C479.826 170.304 479.96 170.384 480.147 170.365C480.389 170.277 480.638 170.251 480.893 170.287C480.546 170.575 480.267 170.918 480.057 171.317C479.847 171.715 479.637 172.114 479.427 172.513C479.218 172.912 478.97 173.252 478.685 173.533C478.407 173.876 477.991 174.107 477.438 174.228C475.588 175.174 473.167 175.457 470.174 175.076C467.188 174.758 463.366 173.961 458.709 172.685C456.381 172.047 454.47 171.492 452.975 171.018C451.537 170.477 450.257 169.95 449.135 169.438C448.07 168.857 447.063 168.239 446.115 167.584C445.23 166.922 444.141 166.124 442.85 165.189ZM452.863 131.82C452.283 132.886 451.599 133.868 450.813 134.767C450.089 135.659 449.368 136.582 448.65 137.536C447.988 138.422 447.401 139.425 446.889 140.547C446.371 141.606 446.058 142.832 445.952 144.226C448.102 143.751 450.309 142.925 452.575 141.747C454.834 140.507 456.975 139.342 458.998 138.252C458.549 136.351 457.704 134.868 456.463 133.803C455.283 132.732 454.083 132.071 452.863 131.82Z" fill="white"/>
</svg>
